<mxfile host="app.diagrams.net" agent="Mozilla/5.0 (Windows NT 10.0; Win64; x64) AppleWebKit/537.36 (KHTML, like Gecko) Chrome/134.0.0.0 Safari/537.36" version="26.1.0">
  <diagram id="C5RBs43oDa-KdzZeNtuy" name="Page-1">
    <mxGraphModel dx="1674" dy="738" grid="1" gridSize="10" guides="1" tooltips="1" connect="1" arrows="1" fold="1" page="1" pageScale="1" pageWidth="827" pageHeight="1169" math="0" shadow="0">
      <root>
        <mxCell id="WIyWlLk6GJQsqaUBKTNV-0" />
        <mxCell id="WIyWlLk6GJQsqaUBKTNV-1" parent="WIyWlLk6GJQsqaUBKTNV-0" />
        <mxCell id="UhTSej9E_OI7juxGHD65-3" style="edgeStyle=orthogonalEdgeStyle;rounded=0;orthogonalLoop=1;jettySize=auto;html=1;" edge="1" parent="WIyWlLk6GJQsqaUBKTNV-1" source="UhTSej9E_OI7juxGHD65-1" target="UhTSej9E_OI7juxGHD65-2">
          <mxGeometry relative="1" as="geometry" />
        </mxCell>
        <mxCell id="UhTSej9E_OI7juxGHD65-1" value="Start" style="ellipse;whiteSpace=wrap;html=1;" vertex="1" parent="WIyWlLk6GJQsqaUBKTNV-1">
          <mxGeometry x="340" y="50" width="120" height="80" as="geometry" />
        </mxCell>
        <mxCell id="UhTSej9E_OI7juxGHD65-9" style="edgeStyle=orthogonalEdgeStyle;rounded=0;orthogonalLoop=1;jettySize=auto;html=1;entryX=0.5;entryY=0;entryDx=0;entryDy=0;" edge="1" parent="WIyWlLk6GJQsqaUBKTNV-1" source="UhTSej9E_OI7juxGHD65-2" target="UhTSej9E_OI7juxGHD65-4">
          <mxGeometry relative="1" as="geometry" />
        </mxCell>
        <mxCell id="UhTSej9E_OI7juxGHD65-2" value="int num&lt;div&gt;int dividedNumCount&lt;/div&gt;" style="shape=parallelogram;perimeter=parallelogramPerimeter;whiteSpace=wrap;html=1;fixedSize=1;" vertex="1" parent="WIyWlLk6GJQsqaUBKTNV-1">
          <mxGeometry x="320" y="170" width="160" height="100" as="geometry" />
        </mxCell>
        <mxCell id="UhTSej9E_OI7juxGHD65-6" style="edgeStyle=orthogonalEdgeStyle;rounded=0;orthogonalLoop=1;jettySize=auto;html=1;entryX=0;entryY=0.5;entryDx=0;entryDy=0;" edge="1" parent="WIyWlLk6GJQsqaUBKTNV-1" source="UhTSej9E_OI7juxGHD65-4" target="UhTSej9E_OI7juxGHD65-5">
          <mxGeometry relative="1" as="geometry" />
        </mxCell>
        <mxCell id="UhTSej9E_OI7juxGHD65-7" value="true" style="edgeLabel;html=1;align=center;verticalAlign=middle;resizable=0;points=[];" vertex="1" connectable="0" parent="UhTSej9E_OI7juxGHD65-6">
          <mxGeometry x="-0.0667" y="-3" relative="1" as="geometry">
            <mxPoint y="-8" as="offset" />
          </mxGeometry>
        </mxCell>
        <mxCell id="UhTSej9E_OI7juxGHD65-15" style="edgeStyle=orthogonalEdgeStyle;rounded=0;orthogonalLoop=1;jettySize=auto;html=1;" edge="1" parent="WIyWlLk6GJQsqaUBKTNV-1" source="UhTSej9E_OI7juxGHD65-4">
          <mxGeometry relative="1" as="geometry">
            <mxPoint x="400" y="570" as="targetPoint" />
          </mxGeometry>
        </mxCell>
        <mxCell id="UhTSej9E_OI7juxGHD65-27" value="???" style="edgeLabel;html=1;align=center;verticalAlign=middle;resizable=0;points=[];" vertex="1" connectable="0" parent="UhTSej9E_OI7juxGHD65-15">
          <mxGeometry x="-0.1802" y="-2" relative="1" as="geometry">
            <mxPoint as="offset" />
          </mxGeometry>
        </mxCell>
        <mxCell id="UhTSej9E_OI7juxGHD65-4" value="int i = 1; i &amp;lt;= num; i++" style="shape=hexagon;perimeter=hexagonPerimeter2;whiteSpace=wrap;html=1;fixedSize=1;" vertex="1" parent="WIyWlLk6GJQsqaUBKTNV-1">
          <mxGeometry x="290" y="340" width="220" height="150" as="geometry" />
        </mxCell>
        <mxCell id="UhTSej9E_OI7juxGHD65-11" style="edgeStyle=orthogonalEdgeStyle;rounded=0;orthogonalLoop=1;jettySize=auto;html=1;entryX=0;entryY=0.5;entryDx=0;entryDy=0;" edge="1" parent="WIyWlLk6GJQsqaUBKTNV-1" source="UhTSej9E_OI7juxGHD65-5" target="UhTSej9E_OI7juxGHD65-10">
          <mxGeometry relative="1" as="geometry" />
        </mxCell>
        <mxCell id="UhTSej9E_OI7juxGHD65-13" value="true" style="edgeLabel;html=1;align=center;verticalAlign=middle;resizable=0;points=[];" vertex="1" connectable="0" parent="UhTSej9E_OI7juxGHD65-11">
          <mxGeometry x="-0.2" y="4" relative="1" as="geometry">
            <mxPoint as="offset" />
          </mxGeometry>
        </mxCell>
        <mxCell id="UhTSej9E_OI7juxGHD65-5" value="num % i == 0" style="rhombus;whiteSpace=wrap;html=1;" vertex="1" parent="WIyWlLk6GJQsqaUBKTNV-1">
          <mxGeometry x="600" y="340" width="160" height="150" as="geometry" />
        </mxCell>
        <mxCell id="UhTSej9E_OI7juxGHD65-10" value="dividedNumCount++" style="rounded=0;whiteSpace=wrap;html=1;" vertex="1" parent="WIyWlLk6GJQsqaUBKTNV-1">
          <mxGeometry x="810" y="350" width="150" height="130" as="geometry" />
        </mxCell>
        <mxCell id="UhTSej9E_OI7juxGHD65-14" style="edgeStyle=orthogonalEdgeStyle;rounded=0;orthogonalLoop=1;jettySize=auto;html=1;entryX=0.75;entryY=0.007;entryDx=0;entryDy=0;entryPerimeter=0;" edge="1" parent="WIyWlLk6GJQsqaUBKTNV-1" source="UhTSej9E_OI7juxGHD65-10" target="UhTSej9E_OI7juxGHD65-4">
          <mxGeometry relative="1" as="geometry">
            <Array as="points">
              <mxPoint x="885" y="300" />
              <mxPoint x="455" y="300" />
            </Array>
          </mxGeometry>
        </mxCell>
        <mxCell id="UhTSej9E_OI7juxGHD65-16" value="dividedNumCount &amp;gt; 2" style="rhombus;whiteSpace=wrap;html=1;" vertex="1" parent="WIyWlLk6GJQsqaUBKTNV-1">
          <mxGeometry x="312.5" y="570" width="175" height="160" as="geometry" />
        </mxCell>
        <mxCell id="UhTSej9E_OI7juxGHD65-18" value="murekkebdir" style="shape=document;whiteSpace=wrap;html=1;boundedLbl=1;" vertex="1" parent="WIyWlLk6GJQsqaUBKTNV-1">
          <mxGeometry x="570" y="620" width="120" height="80" as="geometry" />
        </mxCell>
        <mxCell id="UhTSej9E_OI7juxGHD65-19" style="edgeStyle=orthogonalEdgeStyle;rounded=0;orthogonalLoop=1;jettySize=auto;html=1;entryX=-0.017;entryY=0.363;entryDx=0;entryDy=0;entryPerimeter=0;" edge="1" parent="WIyWlLk6GJQsqaUBKTNV-1" source="UhTSej9E_OI7juxGHD65-16" target="UhTSej9E_OI7juxGHD65-18">
          <mxGeometry relative="1" as="geometry" />
        </mxCell>
        <mxCell id="UhTSej9E_OI7juxGHD65-20" value="true" style="edgeLabel;html=1;align=center;verticalAlign=middle;resizable=0;points=[];" vertex="1" connectable="0" parent="UhTSej9E_OI7juxGHD65-19">
          <mxGeometry x="-0.1284" y="1" relative="1" as="geometry">
            <mxPoint as="offset" />
          </mxGeometry>
        </mxCell>
        <mxCell id="UhTSej9E_OI7juxGHD65-21" value="sadedir" style="shape=document;whiteSpace=wrap;html=1;boundedLbl=1;" vertex="1" parent="WIyWlLk6GJQsqaUBKTNV-1">
          <mxGeometry x="140" y="620" width="120" height="80" as="geometry" />
        </mxCell>
        <mxCell id="UhTSej9E_OI7juxGHD65-22" style="edgeStyle=orthogonalEdgeStyle;rounded=0;orthogonalLoop=1;jettySize=auto;html=1;entryX=0.967;entryY=0.35;entryDx=0;entryDy=0;entryPerimeter=0;" edge="1" parent="WIyWlLk6GJQsqaUBKTNV-1" source="UhTSej9E_OI7juxGHD65-16" target="UhTSej9E_OI7juxGHD65-21">
          <mxGeometry relative="1" as="geometry" />
        </mxCell>
        <mxCell id="UhTSej9E_OI7juxGHD65-23" value="false" style="edgeLabel;html=1;align=center;verticalAlign=middle;resizable=0;points=[];" vertex="1" connectable="0" parent="UhTSej9E_OI7juxGHD65-22">
          <mxGeometry x="-0.2302" y="-3" relative="1" as="geometry">
            <mxPoint x="1" as="offset" />
          </mxGeometry>
        </mxCell>
        <mxCell id="UhTSej9E_OI7juxGHD65-24" value="End" style="ellipse;whiteSpace=wrap;html=1;" vertex="1" parent="WIyWlLk6GJQsqaUBKTNV-1">
          <mxGeometry x="340" y="820" width="120" height="80" as="geometry" />
        </mxCell>
        <mxCell id="UhTSej9E_OI7juxGHD65-25" style="edgeStyle=orthogonalEdgeStyle;rounded=0;orthogonalLoop=1;jettySize=auto;html=1;entryX=1.008;entryY=0.613;entryDx=0;entryDy=0;entryPerimeter=0;" edge="1" parent="WIyWlLk6GJQsqaUBKTNV-1" source="UhTSej9E_OI7juxGHD65-18" target="UhTSej9E_OI7juxGHD65-24">
          <mxGeometry relative="1" as="geometry">
            <Array as="points">
              <mxPoint x="630" y="869" />
            </Array>
          </mxGeometry>
        </mxCell>
        <mxCell id="UhTSej9E_OI7juxGHD65-26" style="edgeStyle=orthogonalEdgeStyle;rounded=0;orthogonalLoop=1;jettySize=auto;html=1;entryX=-0.008;entryY=0.613;entryDx=0;entryDy=0;entryPerimeter=0;" edge="1" parent="WIyWlLk6GJQsqaUBKTNV-1" source="UhTSej9E_OI7juxGHD65-21" target="UhTSej9E_OI7juxGHD65-24">
          <mxGeometry relative="1" as="geometry">
            <Array as="points">
              <mxPoint x="200" y="869" />
            </Array>
          </mxGeometry>
        </mxCell>
      </root>
    </mxGraphModel>
  </diagram>
</mxfile>
